<?xml version="1.0" standalone="no"?>
<!DOCTYPE svg PUBLIC "-//W3C//DTD SVG 20010904//EN"
 "http://www.w3.org/TR/2001/REC-SVG-20010904/DTD/svg10.dtd">
<svg version="1.0" xmlns="http://www.w3.org/2000/svg"
 width="300.000000pt" height="300.000000pt" viewBox="0 0 300.000000 300.000000"
 preserveAspectRatio="xMidYMid meet">
<metadata>
Created by potrace 1.14, written by Peter Selinger 2001-2017
</metadata>
<g transform="translate(0.000000,300.000000) scale(0.100000,-0.100000)"
fill="#000000" stroke="none">
<path d="M1245 2990 c3 -5 13 -10 21 -10 8 0 14 5 14 10 0 6 -9 10 -21 10 -11
0 -17 -4 -14 -10z"/>
<path d="M585 2920 c-8 -16 -15 -49 -15 -73 0 -36 4 -46 20 -50 13 -3 20 0 20
9 0 27 58 16 90 -16 16 -16 37 -30 45 -30 11 0 15 -6 11 -17 -3 -10 -1 -36 4
-58 6 -28 6 -42 -3 -47 -8 -5 -6 -12 6 -26 9 -10 17 -23 17 -29 0 -6 10 -17
21 -25 19 -12 22 -23 21 -78 -1 -47 3 -67 15 -75 9 -7 13 -17 9 -23 -8 -13
-68 8 -97 34 -10 9 -23 16 -31 18 -23 3 -45 20 -58 46 -8 16 -15 20 -18 12 -3
-10 -7 -10 -20 0 -13 11 -15 10 -9 -5 4 -10 7 -28 8 -40 0 -21 1 -21 10 -2 8
17 9 16 5 -8 -4 -34 48 -145 73 -155 25 -9 31 -23 31 -82 0 -30 8 -77 17 -104
l18 -48 -38 -32 c-20 -17 -48 -51 -61 -76 -14 -25 -29 -44 -35 -43 -14 4 -47
-46 -55 -84 -8 -34 11 -53 49 -50 11 1 24 -8 31 -22 7 -13 18 -27 24 -31 13
-8 50 -2 48 9 -3 28 4 71 13 71 5 0 7 -5 4 -11 -4 -6 0 -16 9 -22 9 -7 18 -28
19 -46 2 -32 -1 -35 -40 -48 -51 -17 -57 -46 -18 -83 23 -22 27 -42 13 -66 -4
-6 -5 -20 -2 -31 6 -20 11 -21 122 -18 l117 4 -121 -9 c-66 -5 -131 -14 -145
-19 l-24 -10 27 0 c15 -1 33 -8 41 -16 10 -10 27 -13 49 -10 31 5 31 5 8 -5
-23 -10 -24 -12 -7 -22 33 -18 297 16 297 38 0 10 -15 14 -52 15 l-53 2 57 6
c31 3 63 12 70 19 9 9 -1 12 -53 14 l-64 2 68 5 c37 3 67 10 66 15 0 5 5 13
13 17 10 7 10 9 0 9 -7 0 -2 10 12 24 31 27 32 36 9 36 -15 0 -16 2 -3 10 11
7 6 10 -22 10 -20 0 -43 3 -51 6 -19 7 -10 44 12 45 11 0 12 2 3 6 -9 3 -1 14
23 30 19 13 33 28 30 34 -4 5 7 9 22 9 16 0 53 12 82 26 48 24 53 25 70 10 16
-15 19 -14 31 8 8 16 18 22 28 19 9 -4 13 -2 9 4 -4 6 13 32 37 58 39 42 49
48 85 48 34 0 39 2 30 13 -9 11 -7 14 12 14 18 0 20 3 11 12 -7 7 -12 30 -12
53 0 29 3 36 10 25 5 -8 10 -23 10 -32 0 -21 30 -58 46 -58 11 0 12 35 1 46
-4 4 -7 17 -7 30 0 12 -6 25 -12 27 -10 4 -10 6 0 6 14 1 17 51 2 51 -5 0 -12
-11 -16 -25 -7 -27 -24 -34 -24 -10 0 21 -20 19 -21 -2 0 -14 -2 -15 -6 -3
-18 56 -40 83 -60 75 -18 -6 -46 51 -37 77 5 17 3 20 -10 15 -12 -5 -16 0 -15
21 0 23 2 24 8 8 5 -14 10 -16 15 -8 4 7 4 17 1 22 -3 6 -1 10 4 10 6 0 11 -7
11 -15 0 -8 8 -15 18 -15 17 0 18 7 14 58 -3 31 -9 60 -14 63 -5 3 -10 21 -10
38 -1 29 -4 32 -25 28 -13 -2 -23 1 -23 7 0 6 -5 4 -10 -4 -8 -12 -12 -12 -18
-2 -13 20 -61 42 -91 42 -14 0 -57 4 -96 8 l-69 7 -80 100 c-116 147 -272 296
-347 334 -81 40 -114 41 -134 1z m125 -524 c0 -4 11 -17 25 -28 29 -23 32 -38
7 -38 -24 0 -69 48 -78 84 l-7 29 26 -19 c15 -10 27 -23 27 -28z m-22 -61 c-3
-3 -9 2 -12 12 -6 14 -5 15 5 6 7 -7 10 -15 7 -18z m642 -30 c12 8 40 -24 39
-43 -1 -15 -2 -15 -6 1 -6 23 -16 21 -28 -5 -6 -13 -17 -23 -25 -23 -8 0 -21
-7 -28 -15 -11 -13 -13 -9 -9 21 5 37 39 88 45 69 2 -5 7 -8 12 -5z m-151 -52
c22 -76 13 -88 -61 -85 -27 1 -48 -3 -48 -8 0 -6 -19 -10 -42 -11 -39 0 -41
-1 -18 -10 25 -10 25 -11 -38 -69 -45 -41 -68 -56 -82 -53 -11 3 -17 9 -14 14
6 10 -25 0 -43 -14 -14 -10 -43 -3 -43 12 0 5 14 12 30 16 17 4 30 11 30 16 0
5 11 14 24 20 14 7 27 22 30 35 4 13 13 24 21 24 8 0 12 6 9 13 -5 13 86 47
126 47 13 0 17 5 14 14 -4 10 2 16 18 18 15 2 23 10 23 23 0 15 6 19 23 18 13
-2 21 1 17 7 -3 6 -2 10 4 10 6 0 15 -17 20 -37z m-149 -247 c0 -3 -4 -8 -10
-11 -5 -3 -10 -1 -10 4 0 6 5 11 10 11 6 0 10 -2 10 -4z m-77 -583 c-7 -2 -21
-2 -30 0 -10 3 -4 5 12 5 17 0 24 -2 18 -5z m-70 -10 c-7 -2 -21 -2 -30 0 -10
3 -4 5 12 5 17 0 24 -2 18 -5z"/>
<path d="M928 2113 c7 -3 16 -2 19 1 4 3 -2 6 -13 5 -11 0 -14 -3 -6 -6z"/>
<path d="M2173 2922 c-39 -40 -159 -185 -170 -205 -7 -12 -12 -30 -13 -40 0
-11 -5 -15 -11 -11 -8 4 -9 -1 -4 -16 5 -16 4 -20 -5 -15 -9 5 -10 1 -5 -16 4
-16 3 -19 -3 -11 -6 9 -14 0 -26 -33 -18 -47 -15 -78 4 -34 9 22 10 22 6 -7
-2 -17 -11 -44 -19 -60 l-16 -29 -1 30 -1 30 -19 -35 c-10 -19 -27 -59 -36
-89 -14 -43 -19 -50 -25 -35 -4 10 -8 28 -8 39 -1 16 1 17 9 5 7 -11 11 -9 19
13 6 14 24 59 42 99 17 40 37 88 45 106 8 17 12 32 10 32 -9 0 -58 -93 -62
-118 -3 -15 -7 -28 -9 -31 -8 -7 -76 -8 -80 -1 -2 4 -30 8 -62 8 -67 1 -112
-23 -97 -51 5 -8 13 -16 19 -16 5 0 11 -5 14 -12 2 -8 -4 -10 -18 -6 -19 5
-21 2 -15 -16 10 -34 10 -42 -2 -40 -6 1 -9 -10 -6 -28 5 -37 26 -37 49 1 9
17 21 30 25 30 4 0 8 10 8 23 1 19 4 17 20 -13 11 -19 19 -46 20 -60 0 -20 2
-22 10 -10 5 8 10 13 10 10 0 -3 4 -20 9 -38 6 -20 6 -32 0 -32 -5 0 -10 10
-10 23 -1 16 -2 18 -6 5 -2 -10 -11 -18 -20 -18 -8 0 -17 -9 -20 -21 -4 -16
-12 -20 -30 -16 -19 4 -22 1 -18 -14 4 -11 2 -19 -3 -19 -6 0 -12 6 -15 13 -3
9 -7 9 -20 -1 -13 -11 -14 -18 -4 -35 7 -12 18 -26 25 -32 7 -6 15 -35 17 -64
4 -47 15 -85 15 -53 0 21 16 13 29 -14 13 -30 6 -47 -10 -24 -9 13 -11 13 -16
1 -4 -10 -10 -5 -18 15 -11 24 -14 26 -20 12 -11 -28 22 -53 70 -53 42 0 42 0
34 30 -11 37 -11 37 1 30 6 -3 10 -1 10 6 0 7 3 9 7 5 4 -4 6 -61 4 -126 -2
-103 0 -120 13 -120 11 0 18 13 22 42 6 35 9 39 19 25 14 -20 30 -23 19 -5 -5
7 4 3 19 -9 29 -22 81 -25 182 -9 23 3 32 3 22 -2 -15 -6 -12 -10 20 -24 21
-9 61 -18 89 -21 42 -5 55 -2 69 13 9 10 27 21 40 24 18 5 23 13 23 34 -1 15
2 35 6 45 9 18 36 24 36 7 0 -5 8 -10 18 -10 26 0 46 42 38 77 -4 15 -10 41
-13 57 -6 29 -71 102 -131 146 l-34 25 15 40 c18 46 29 137 16 129 -5 -3 -9 4
-9 15 0 12 4 21 10 21 17 0 37 53 60 155 24 113 29 136 35 185 4 34 4 34 -4 5
l-9 -30 -1 29 c-1 28 -2 29 -15 11 -7 -10 -11 -27 -8 -38 3 -13 1 -18 -6 -13
-16 10 -83 -69 -89 -105 -1 -9 -18 -33 -38 -55 -34 -37 -36 -38 -41 -17 -8 30
-25 22 -111 -52 -23 -20 -47 -34 -52 -31 -5 4 -13 1 -17 -5 -5 -8 -3 -9 6 -4
9 6 11 4 6 -4 -5 -7 -11 -10 -14 -7 -7 7 -32 -13 -32 -26 0 -6 8 -4 18 3 9 7
5 0 -9 -16 -29 -33 -54 -76 -51 -87 1 -5 -2 -8 -7 -8 -12 0 -17 8 -25 45 -4
18 -3 25 2 17 7 -10 11 -10 22 3 11 14 7 19 -12 16 -4 0 -5 6 -1 14 5 14 7 14
17 0 10 -14 16 -11 43 23 21 26 28 43 22 49 -15 15 0 66 15 54 13 -11 33 -10
61 6 11 5 25 8 32 6 6 -2 15 1 19 8 4 8 3 9 -4 5 -17 -10 -15 6 3 30 18 24 19
37 3 29 -7 -4 -4 1 6 9 11 9 23 16 28 16 4 0 8 11 8 25 0 14 -5 25 -10 25 -6
0 -2 10 10 22 24 26 30 62 15 103 -6 16 -5 17 4 5 13 -18 14 -1 1 20 -7 12
-12 12 -22 2 -6 -6 -16 -12 -20 -12 -8 0 21 45 73 113 23 31 18 37 -8 9z
m-368 -539 c-10 -40 -17 -20 -9 23 5 24 9 32 12 21 2 -10 1 -30 -3 -44z m-24
10 c-12 -20 -14 -14 -5 12 4 9 9 14 11 11 3 -2 0 -13 -6 -23z m139 -573 c0 -5
-2 -10 -4 -10 -3 0 -8 5 -11 10 -3 6 -1 10 4 10 6 0 11 -4 11 -10z"/>
<path d="M2106 2554 c-11 -7 -17 -17 -13 -20 3 -4 14 1 23 10 21 22 15 28 -10
10z"/>
<path d="M2032 2487 c-12 -13 -22 -27 -22 -33 0 -5 12 4 26 19 14 16 24 30 22
33 -3 2 -14 -6 -26 -19z"/>
<path d="M1919 2363 c-13 -16 -12 -17 4 -4 9 7 17 15 17 17 0 8 -8 3 -21 -13z"/>
<path d="M2982 2228 c-7 -7 -12 -18 -12 -25 0 -7 -11 -15 -25 -19 -14 -3 -25
-10 -25 -15 0 -5 -12 -9 -27 -9 -19 0 -24 -3 -16 -11 8 -8 -2 -23 -33 -55 -25
-24 -51 -44 -59 -44 -17 0 -34 -30 -28 -47 3 -7 0 -13 -6 -13 -6 0 -18 -15
-27 -32 -10 -18 -34 -53 -54 -78 -53 -65 -72 -98 -60 -105 6 -4 10 -21 10 -38
-1 -18 1 -41 4 -52 2 -11 5 -27 5 -36 1 -10 13 -20 28 -24 19 -4 23 -9 14 -14
-22 -14 5 -22 35 -11 35 14 43 5 16 -17 -12 -10 -24 -30 -28 -45 -6 -25 -3
-28 22 -30 16 -1 45 -1 64 0 50 3 60 -8 61 -66 1 -29 6 -55 11 -58 5 -4 5 -10
-1 -17 -5 -7 -8 -52 -6 -102 l3 -89 -46 50 c-26 28 -59 65 -74 82 -14 18 -31
32 -37 32 -13 0 -19 -97 -7 -135 5 -16 17 -52 27 -79 11 -26 17 -52 14 -56 -6
-10 24 -92 62 -168 29 -59 26 -75 -9 -40 -12 12 -29 22 -36 20 -22 -5 -81 -49
-75 -56 4 -3 1 -16 -6 -29 -18 -34 -85 -25 -127 17 -17 17 -38 36 -45 42 -8 6
-41 41 -74 77 -65 72 -63 71 -84 58 -12 -7 -12 -13 -3 -24 7 -7 9 -17 5 -21
-4 -3 8 -12 25 -18 31 -12 43 -28 22 -28 -11 0 -51 21 -60 31 -3 3 -13 8 -22
12 -10 3 -18 16 -18 28 0 12 -8 23 -20 26 -11 3 -20 12 -20 20 0 9 6 13 15 9
8 -3 15 -1 15 4 0 6 -6 10 -14 10 -7 0 -19 6 -25 14 -10 12 -8 16 10 21 15 5
26 2 34 -9 13 -17 45 -22 45 -6 0 5 -13 16 -29 25 -23 11 -36 12 -56 5 -30
-11 -45 -6 -45 16 0 11 9 15 28 14 42 -3 45 -1 32 15 -7 8 -21 15 -31 15 -11
0 -19 4 -19 10 0 5 7 7 15 4 10 -4 15 0 15 11 0 9 5 13 11 9 8 -4 9 1 4 16 -6
19 -4 21 16 15 18 -6 21 -4 16 9 -4 9 -2 16 3 16 9 0 11 44 4 88 -3 13 -17 28
-37 36 l-32 15 31 -6 c38 -6 56 14 20 23 -13 3 -32 14 -41 24 -16 18 -15 20
17 36 l33 18 -35 7 -35 6 40 3 40 2 -35 11 -35 11 30 4 c30 4 65 32 65 52 0
11 -9 13 -60 11 -27 -1 -31 1 -20 8 12 9 11 11 -8 11 -13 0 -20 4 -17 10 3 6
18 10 33 10 43 0 12 17 -43 24 -128 16 -155 18 -155 7 0 -6 5 -11 10 -11 6 0
10 -13 10 -30 0 -16 9 -39 19 -49 14 -14 16 -21 8 -25 -8 -3 -8 -5 2 -5 11 -1
11 -4 1 -16 -11 -13 -8 -15 16 -16 l29 -1 -30 -7 c-20 -4 -29 -12 -27 -23 1
-10 -7 -17 -24 -21 -43 -8 -63 2 -61 31 2 22 -3 28 -23 30 -14 2 -29 7 -35 11
-5 3 -35 4 -65 0 -30 -3 -49 -6 -42 -7 6 -1 12 -7 12 -13 0 -10 -56 -6 -67 5
-2 2 1 25 8 51 8 30 8 49 2 54 -5 3 -13 13 -16 21 -4 8 -16 29 -27 45 -11 17
-23 38 -26 48 -6 17 -21 21 -56 18 -10 -1 -18 4 -18 12 0 8 -9 17 -21 20 -15
4 -19 2 -15 -9 3 -8 2 -13 -3 -9 -8 5 -57 -50 -86 -96 -5 -9 -24 -35 -41 -57
-27 -36 -33 -40 -44 -27 -7 8 -19 15 -27 15 -14 0 -34 -39 -26 -52 2 -5 -1 -8
-6 -8 -6 0 -11 -4 -11 -10 0 -5 9 -10 21 -10 11 0 28 -8 37 -17 16 -16 16 -16
-1 -10 -10 4 -28 0 -42 -9 -22 -14 -25 -14 -37 5 -11 19 -14 19 -30 4 -10 -9
-21 -14 -24 -11 -8 9 18 47 36 52 8 3 2 4 -15 3 -28 -2 -30 -5 -29 -40 1 -37
1 -37 -60 -56 l-61 -19 40 -4 40 -3 -38 -19 c-47 -23 -51 -30 -30 -52 17 -17
16 -17 -12 -10 -39 10 -65 34 -58 54 4 9 2 13 -4 9 -6 -4 -39 -9 -74 -12 -35
-3 -81 -8 -101 -11 -33 -5 -36 -8 -23 -21 9 -8 13 -19 9 -24 -10 -17 24 -21
53 -6 15 8 36 11 47 8 13 -5 4 -10 -34 -19 -28 -7 -59 -8 -68 -4 -9 4 -44 8
-76 7 -54 0 -59 -2 -61 -22 -1 -17 4 -23 17 -23 13 0 17 -4 11 -12 -4 -7 5 -5
20 5 21 14 25 14 21 2 -8 -20 44 -20 93 0 45 19 52 19 27 -1 -16 -13 -16 -15
-1 -10 10 3 17 0 17 -8 0 -9 7 -12 20 -9 11 3 20 1 20 -4 0 -12 44 -33 70 -33
10 0 25 -9 33 -20 8 -11 16 -18 18 -16 2 2 4 -11 4 -30 0 -19 -3 -34 -7 -34
-13 0 -9 -28 5 -34 9 -5 9 -7 -1 -12 -10 -5 -10 -9 -1 -20 9 -12 5 -14 -22
-15 -19 -1 -26 -3 -16 -6 27 -7 15 -26 -22 -35 -17 -5 -35 -16 -38 -24 -5 -13
-8 -13 -24 2 -17 16 -19 16 -25 0 -5 -12 -10 -14 -19 -6 -14 12 -65 3 -65 -11
0 -5 10 -9 21 -9 17 0 20 -4 15 -20 -3 -11 -9 -30 -13 -42 -4 -15 -3 -19 5
-14 15 9 15 -9 2 -34 -13 -24 3 -35 20 -15 7 8 17 15 23 15 14 0 36 32 37 54
0 12 5 16 16 12 9 -3 18 -6 22 -6 3 0 -3 -6 -13 -14 -13 -9 -16 -18 -10 -32 4
-10 7 -23 6 -27 -1 -5 3 -6 9 -2 6 3 8 11 5 16 -9 13 9 11 24 -3 10 -11 11
-10 5 5 -8 22 12 47 39 47 11 0 18 -3 14 -6 -7 -8 17 -34 32 -34 6 0 11 -4 11
-10 0 -5 -8 -10 -19 -10 -15 0 -18 -6 -15 -30 4 -30 -9 -41 -20 -17 -3 6 -3 2
0 -10 4 -18 2 -22 -11 -16 -15 5 -16 1 -10 -27 5 -25 4 -31 -6 -27 -8 2 -13
10 -11 16 1 7 -2 10 -6 7 -12 -7 -7 -53 8 -71 7 -9 8 -15 2 -15 -5 0 -16 7
-23 16 -12 15 -15 13 -26 -22 l-13 -39 6 40 c3 22 10 46 16 53 8 9 6 12 -6 12
-9 0 -16 -6 -16 -12 0 -9 -4 -8 -10 2 -8 12 -10 9 -10 -12 0 -16 -4 -28 -9
-28 -4 0 -6 12 -3 27 4 27 4 27 -12 8 -14 -18 -15 -18 -16 -2 0 21 -20 23 -20
2 0 -8 -4 -15 -10 -15 -5 0 -13 -18 -16 -40 -4 -22 -13 -45 -20 -51 -8 -6 -11
-15 -9 -20 3 -4 -8 -15 -24 -23 -26 -14 -30 -14 -35 0 -3 8 -2 12 3 9 5 -3 12
-1 15 4 3 5 -4 11 -15 14 -14 4 -18 10 -13 19 5 9 2 8 -11 -2 -17 -14 -17 -13
-10 10 7 21 6 23 -7 13 -8 -8 -15 -32 -16 -59 -3 -54 -20 -79 -41 -57 -7 8
-24 48 -38 91 -30 86 -51 116 -73 102 -8 -5 -27 -10 -41 -10 -15 0 -30 -7 -33
-16 -4 -10 -14 -14 -25 -11 -14 3 -18 1 -14 -9 3 -8 -1 -14 -8 -14 -7 0 -20
-7 -30 -16 -13 -11 -22 -13 -36 -6 -28 15 -73 3 -83 -23 -5 -13 -18 -26 -29
-30 -24 -7 -27 -21 -8 -28 9 -4 9 -6 -1 -6 -7 -1 -25 -13 -39 -27 -20 -20 -28
-23 -34 -12 -7 10 -9 10 -9 -2 0 -9 -13 -30 -30 -48 -16 -18 -30 -36 -30 -39
0 -8 -60 -62 -66 -60 -3 1 -11 -7 -17 -18 -7 -11 -23 -21 -36 -23 -47 -5 -51
-17 -51 -138 l0 -114 1500 0 1500 0 0 1120 c0 616 -1 1120 -3 1120 -2 0 -8 -5
-15 -12z m-825 -634 c-3 -3 -12 -4 -19 -1 -8 3 -5 6 6 6 11 1 17 -2 13 -5z
m-84 -191 c-7 -2 -19 -2 -25 0 -7 3 -2 5 12 5 14 0 19 -2 13 -5z m-943 -84
c13 -9 13 -10 0 -8 -31 3 -51 -1 -46 -10 4 -5 -4 -7 -16 -4 -15 3 -19 2 -11
-4 8 -6 1 -9 -22 -9 -42 0 -42 0 20 24 61 24 57 24 75 11z m60 -19 c-8 -5 -19
-10 -25 -10 -5 0 -3 5 5 10 8 5 20 10 25 10 6 0 3 -5 -5 -10z m-290 -14 c0 -2
-7 -7 -16 -10 -8 -3 -12 -2 -9 4 6 10 25 14 25 6z m307 -397 c2 -29 -1 -38
-10 -33 -6 4 -4 -2 6 -13 22 -25 7 -39 -23 -23 -21 11 -28 54 -10 65 6 4 8 10
5 15 -3 5 3 13 12 19 10 6 18 11 18 11 0 0 1 -18 2 -41z m-152 21 c3 -5 -3
-10 -15 -10 -12 0 -18 5 -15 10 3 6 10 10 15 10 5 0 12 -4 15 -10z m40 -39
c-3 -6 -11 -8 -17 -5 -6 4 -5 9 3 15 16 10 23 4 14 -10z m1275 -11 c0 -5 -7
-10 -15 -10 -8 0 -15 5 -15 10 0 6 7 10 15 10 8 0 15 -4 15 -10z m-467 -33
c-2 -25 1 -27 19 -21 21 6 21 6 4 -11 -16 -16 -16 -19 -3 -27 9 -5 26 -3 42 4
18 8 29 8 36 1 8 -8 7 -11 -2 -10 -24 3 -25 -18 -1 -21 12 -2 22 1 22 7 0 6 5
11 10 11 6 0 10 -10 10 -21 0 -18 2 -19 15 -9 10 9 15 9 15 1 0 -6 5 -11 10
-11 5 0 9 5 7 11 -1 6 4 14 11 16 6 3 12 -2 12 -10 0 -15 21 -27 43 -27 7 0 4
5 -5 11 -10 5 -18 17 -18 24 0 8 -7 15 -16 15 -8 0 -13 4 -9 9 3 6 -3 15 -12
21 -14 8 -4 10 42 7 74 -5 187 -35 198 -53 6 -11 12 -11 28 -1 17 10 22 9 38
-12 10 -13 23 -21 30 -17 18 11 13 26 -9 26 -28 0 -25 13 7 28 34 15 41 15 57
-1 17 -16 27 -80 15 -98 -8 -12 -11 -11 -20 4 -18 31 -26 18 -19 -33 7 -57 6
-60 -28 -60 -18 0 -22 -3 -14 -12 24 -30 12 -87 -26 -122 -21 -18 -22 -18 -61
13 -47 37 -51 38 -51 6 0 -15 -6 -25 -14 -25 -8 0 -16 -5 -18 -11 -7 -20 -36
3 -44 34 -16 66 -12 96 12 76 8 -6 18 -9 21 -5 11 11 -19 26 -47 24 -20 -3
-25 -8 -24 -30 1 -15 -3 -25 -7 -22 -22 13 -6 -17 16 -32 27 -18 33 -34 11
-34 -7 0 -22 11 -32 25 -10 14 -26 25 -34 25 -8 0 -24 12 -35 26 l-19 26 -8
-22 -8 -22 -19 24 c-11 13 -21 33 -24 43 -2 11 -3 3 -1 -18 3 -25 -1 -43 -11
-53 -13 -14 -14 -12 -9 13 4 21 1 33 -13 44 -17 13 -17 13 -4 -4 8 -9 11 -21
7 -24 -4 -4 -11 -1 -15 6 -7 11 -10 9 -15 -6 -4 -11 -4 -28 0 -37 8 -21 -12
-21 -24 0 -15 26 -34 6 -27 -27 7 -33 -7 -53 -50 -69 -23 -9 -25 -13 -15 -25
10 -12 9 -15 -4 -15 -9 0 -16 -7 -16 -15 0 -8 4 -15 9 -15 5 0 13 -9 16 -20 4
-11 10 -18 15 -15 5 3 3 -11 -4 -32 -8 -23 -19 -37 -28 -36 -7 2 -28 -10 -44
-25 l-31 -28 -20 57 c-18 52 -19 59 -4 73 9 9 11 16 4 16 -6 0 -13 -5 -15 -10
-2 -7 -9 -6 -20 2 -14 11 -16 20 -8 53 7 32 6 42 -5 51 -10 7 -15 29 -15 65 0
59 23 199 39 241 13 34 80 96 135 124 54 28 72 26 69 -9z m259 -9 c-9 -9 -15
-9 -24 1 -11 11 -10 13 5 8 10 -4 17 -2 17 5 0 6 3 8 7 5 4 -4 1 -13 -5 -19z
m339 -8 c5 0 9 -8 9 -17 -1 -16 -2 -16 -15 1 -8 11 -14 27 -14 35 1 13 2 12 6
-1 2 -10 9 -18 14 -18z m-47 14 c24 -9 19 -24 -8 -24 -26 0 -40 12 -29 24 8 8
17 8 37 0z m-1534 -324 c0 -5 -7 -10 -15 -10 -8 0 -15 5 -15 10 0 6 7 10 15
10 8 0 15 -4 15 -10z m1180 -25 c17 -9 30 -19 30 -24 0 -5 10 -11 22 -14 12
-4 19 -9 16 -13 -4 -3 -19 1 -35 10 -15 8 -36 18 -45 22 -15 5 -34 34 -22 34
3 0 18 -7 34 -15z m-145 -56 c-11 -17 -35 -9 -35 11 0 18 3 19 20 10 11 -6 18
-15 15 -21z m-1089 -97 c-9 -8 -14 0 -21 33 l-6 30 16 -28 c9 -16 14 -31 11
-35z"/>
<path d="M2004 722 c-11 -7 -18 -32 -15 -60 0 -7 5 -10 11 -7 14 9 50 -13 50
-30 0 -24 17 -17 24 9 3 13 14 26 23 29 10 2 27 8 37 13 14 5 17 4 12 -4 -4
-7 -2 -12 4 -12 7 0 10 6 7 13 -2 6 -13 11 -23 10 -10 -1 -23 5 -27 13 -4 8
-21 14 -37 14 -16 0 -32 5 -35 10 -7 12 -16 12 -31 2z"/>
<path d="M1938 713 c7 -3 16 -2 19 1 4 3 -2 6 -13 5 -11 0 -14 -3 -6 -6z"/>
<path d="M2370 710 c0 -5 7 -10 15 -10 8 0 15 5 15 10 0 6 -7 10 -15 10 -8 0
-15 -4 -15 -10z"/>
<path d="M2290 656 c0 -5 69 -48 95 -59 23 -9 22 -8 -29 32 -33 27 -66 40 -66
27z"/>
<path d="M1985 620 c-3 -5 -2 -10 4 -10 5 0 18 -3 28 -7 16 -6 16 -5 4 10 -15
19 -27 22 -36 7z"/>
<path d="M2240 614 c0 -11 5 -14 16 -10 9 3 21 6 27 6 16 0 -14 20 -30 20 -7
0 -13 -7 -13 -16z"/>
<path d="M2067 573 c-11 -11 -8 -20 7 -20 8 0 12 6 9 14 -6 15 -7 15 -16 6z"/>
<path d="M2110 560 c0 -14 6 -19 20 -17 28 4 37 17 20 27 -24 16 -40 11 -40
-10z"/>
<path d="M1921 534 c0 -11 3 -14 6 -6 3 7 2 16 -1 19 -3 4 -6 -2 -5 -13z"/>
<path d="M2210 512 c0 -12 19 -26 26 -19 2 2 -2 10 -11 17 -9 8 -15 8 -15 2z"/>
<path d="M1790 390 c0 -5 5 -10 10 -10 6 0 10 5 10 10 0 6 -4 10 -10 10 -5 0
-10 -4 -10 -10z"/>
<path d="M1780 360 c0 -5 7 -7 15 -4 8 4 15 8 15 10 0 2 -7 4 -15 4 -8 0 -15
-4 -15 -10z"/>
<path d="M1537 2216 c-5 -12 0 -16 21 -17 17 -1 20 -3 10 -6 -14 -3 -18 -15
-18 -45 0 -23 3 -38 8 -34 4 4 7 13 7 19 0 7 8 13 18 15 10 2 17 -3 17 -12 0
-9 6 -16 14 -16 9 0 12 8 8 25 -2 14 -8 25 -13 25 -5 0 -9 6 -9 14 0 8 -10 18
-22 22 -13 4 -26 11 -29 16 -3 5 -9 3 -12 -6z"/>
<path d="M163 2123 c-163 -3 -163 -3 -163 -27 0 -22 3 -23 124 -30 85 -4 133
-3 153 5 15 7 38 11 50 11 24 -2 40 27 21 40 -7 4 -15 7 -18 6 -3 -2 -78 -4
-167 -5z"/>
<path d="M1581 2104 c0 -11 3 -14 6 -6 3 7 2 16 -1 19 -3 4 -6 -2 -5 -13z"/>
<path d="M22 2022 c-21 -3 -23 -8 -18 -40 3 -20 10 -165 16 -322 5 -157 13
-339 16 -405 4 -66 6 -135 5 -154 -2 -46 8 -91 22 -91 6 0 19 7 29 17 10 9 18
12 18 6 0 -6 14 -8 37 -4 21 4 52 6 68 5 46 -2 65 12 62 46 -2 17 -7 33 -10
37 -4 3 -2 12 4 20 9 11 1 13 -49 13 -72 0 -84 11 -90 83 -5 63 11 83 82 96
26 5 50 11 53 15 11 11 16 132 17 403 1 144 -3 265 -7 270 -8 8 -207 12 -255
5z"/>
<path d="M1595 1910 c-3 -6 1 -13 10 -16 19 -8 30 0 20 15 -8 14 -22 14 -30 1z"/>
<path d="M2008 1793 c7 -3 16 -2 19 1 4 3 -2 6 -13 5 -11 0 -14 -3 -6 -6z"/>
<path d="M358 1640 c-4 -14 -10 -80 -13 -147 -3 -68 -10 -145 -14 -173 -5 -28
-4 -53 1 -56 4 -3 6 -8 4 -12 -11 -19 -15 -82 -5 -82 7 0 7 -6 -2 -17 -11 -13
-11 -17 -1 -20 7 -3 9 -10 5 -16 -8 -12 -10 -28 -19 -157 -3 -41 -9 -97 -14
-125 l-8 -50 29 34 c45 54 58 91 63 179 3 45 6 85 8 89 3 5 3 14 2 21 -1 6 -2
19 -3 27 -1 9 -8 12 -18 9 -17 -5 -17 -5 0 6 16 10 17 28 11 223 -6 225 -15
313 -26 267z"/>
<path d="M1893 1563 c-17 -6 -16 -23 1 -23 8 0 16 7 20 15 6 15 1 17 -21 8z"/>
<path d="M619 1111 c-26 -26 -30 -39 -14 -45 8 -3 14 -2 13 2 -1 4 4 18 11 30
16 29 11 35 -10 13z"/>
<path d="M148 900 c-38 -3 -71 -10 -75 -13 -3 -4 -5 -92 -4 -197 2 -130 -1
-190 -8 -190 -6 0 -11 1 -11 3 0 1 -7 78 -15 171 -8 93 -14 172 -13 175 2 18
-3 31 -12 31 -6 0 -10 -88 -10 -245 l0 -245 23 4 c12 3 25 5 29 5 11 1 78 96
133 189 28 46 59 97 69 114 13 21 20 54 23 109 3 69 1 79 -16 89 -11 5 -26 9
-33 9 -7 -1 -43 -5 -80 -9z"/>
<path d="M500 810 c0 -13 11 -13 30 0 12 8 11 10 -7 10 -13 0 -23 -4 -23 -10z"/>
<path d="M1036 747 c3 -10 9 -15 12 -12 3 3 0 11 -7 18 -10 9 -11 8 -5 -6z"/>
<path d="M990 700 c-8 -16 -8 -20 4 -20 10 0 13 6 9 17 -5 12 -3 14 7 8 9 -5
11 -4 6 3 -10 16 -14 15 -26 -8z"/>
</g>
</svg>
